#!OML:ASF E:\motion texture\Top Level 1\Subject 1\Session 1\male.ASF
:FULLY-SPECIFIED
:DEGREES
315
root -10.2239 17.8857 5.0426 369.417 -86.8029 -363.654
lowerback 0.497428 -0.512931 -1.59146
upperback -1.55886 -0.690337 2.42886
thorax -1.83028 -0.311675 3.40484
lowerneck -13.3662 0.108137 -2.152
upperneck 23.1557 -1.87438 8.45165
head 9.61974 -0.284004 3.05361
rclavicle -1.08835e-014 3.02153e-014
rhumerus -30.1461 -20.0957 -67.1208
rradius 22.6725
rwrist 12.4258
rhand -12.3061 -23.0249
rfingers 7.12502
rthumb 13.762 -52.5497
lclavicle -1.08835e-014 3.02153e-014
lhumerus -23.1926 22.0602 65.7577
lradius 36.7196
lwrist 5.32558
lhand -11.2373 22.0686
lfingers 7.12502
lthumb 14.7919 51.5208
rfemur -34.3877 -7.32123 18.8412
rtibia 27.5238
rfoot -3.13512 -22.4917
rtoes 9.72475
lfemur 0.406649 -5.64718 -21.3903
ltibia 13.9966
lfoot -15.2668 2.81354
ltoes -7.56392
316
root -10.3572 17.8624 5.03734 367.551 -86.8246 -361.66
lowerback 0.441298 -0.613299 -1.70456
upperback -1.54912 -0.825465 2.45005
thorax -1.77747 -0.378357 3.49228
lowerneck -13.3235 -0.0594604 -2.22516
upperneck 23.2145 -2.10952 8.46591
head 9.64788 -0.400882 3.0436
rclavicle -9.79014e-015 4.05521e-014
rhumerus -29.8395 -19.5343 -67.4793
rradius 23.0976
rwrist 11.808
rhand -12.4908 -23.1972
rfingers 7.12502
rthumb 13.584 -52.734
lclavicle -9.79014e-015 4.05521e-014
lhumerus -22.2924 22.1824 65.6197
lradius 37.5995
lwrist 6.58462
lhand -10.9662 21.9056
lfingers 7.12502
lthumb 15.0531 51.3384
rfemur -34.2286 -6.3755 18.237
rtibia 24.5478
rfoot -2.52187 -22.1989
rtoes 9.65766
lfemur 0.826809 -5.47365 -21.5056
ltibia 13.9114
lfoot -15.5746 2.82728
ltoes -7.81895
317
root -10.492 17.838 5.03134 365.71 -86.8369 -359.693
lowerback 0.378068 -0.710348 -1.81289
upperback -1.52971 -0.955944 2.46894
thorax -1.71056 -0.443179 3.57405
lowerneck -13.2847 -0.232251 -2.30847
upperneck 23.2712 -2.35043 8.48408
head 9.67678 -0.520734 3.03592
rclavicle 7.60351e-015 -2.38542e-015
rhumerus -29.5345 -18.9902 -67.8288
rradius 23.5058
rwrist 11.2231
rhand -12.6832 -23.3692
rfingers 7.12502
rthumb 13.3985 -52.9183
lclavicle 7.60351e-015 -2.38542e-015
lhumerus -21.3726 22.3875 65.5035
lradius 38.427
lwrist 7.56476
lhand -10.8406 21.8226
lfingers 7.12502
lthumb 15.174 51.2462
rfemur -34.0075 -5.26579 17.5356
rtibia 21.6112
rfoot -2.23665 -22.022
rtoes 9.27598
lfemur 1.23968 -5.28849 -21.6077
ltibia 13.8494
lfoot -15.8809 2.82484
ltoes -8.06841
318
root -10.6283 17.8128 5.0246 363.765 -86.8364 -357.627
lowerback 0.313033 -0.806185 -1.92468
upperback -1.5028 -1.08466 2.48429
thorax -1.63451 -0.507394 3.65362
lowerneck -13.2516 -0.410307 -2.40293
upperneck 23.3323 -2.59741 8.50506
head 9.70917 -0.643822 3.03045
rclavicle 1.18277e-014 -8.74653e-015
rhumerus -29.2301 -18.4721 -68.1654
rradius 23.8865
rwrist 10.6874
rhand -12.8705 -23.5386
rfingers 7.12502
rthumb 13.218 -53.0995
lclavicle 1.18277e-014 -8.74653e-015
lhumerus -20.4419 22.6535 65.415
lradius 39.2039
lwrist 8.3195
lhand -10.8479 21.8016
lfingers 7.12502
lthumb 15.167 51.2258
rfemur -33.7401 -3.99631 16.7225
rtibia 18.7649
rfoot -2.28175 -22.0017
rtoes 8.50934
lfemur 1.65227 -5.11927 -21.7101
ltibia 13.8042
lfoot -16.1822 2.80937
ltoes -8.31856
319
root -10.7655 17.7868 5.01659 361.744 -86.8152 -355.481
lowerback 0.24483 -0.904635 -2.04852
upperback -1.47181 -1.21676 2.499
thorax -1.55144 -0.573416 3.73891
lowerneck -13.2219 -0.589073 -2.51144
upperneck 23.3991 -2.84452 8.53248
head 9.74481 -0.767311 3.0297
rclavicle 1.12313e-014 -1.98785e-014
rhumerus -28.9245 -17.9716 -68.4926
rradius 24.2373
rwrist 10.1998
rhand -13.0512 -23.7044
rfingers 7.12502
rthumb 13.0439 -53.2766
lclavicle 1.12313e-014 -1.98785e-014
lhumerus -19.5019 22.969 65.3618
lradius 39.9282
lwrist 8.89376
lhand -10.9664 21.8079
lfingers 7.12502
lthumb 15.0529 51.2407
rfemur -33.4714 -2.59148 15.8046
rtibia 16.0967
rfoot -2.66576 -22.1855
rtoes 7.38759
lfemur 2.04349 -4.98296 -21.8069
ltibia 13.7924
lfoot -16.4779 2.77012
ltoes -8.60062
320
root -10.9035 17.7603 5.00748 359.662 -86.7742 -353.269
lowerback 0.192418 -1.00215 -2.17992
upperback -1.45203 -1.3476 2.50968
thorax -1.48819 -0.638388 3.82442
lowerneck -13.187 -0.766381 -2.62593
upperneck 23.4851 -3.09153 8.562
head 9.78679 -0.891128 3.03098
rclavicle 1.51573e-014 -1.51076e-014
rhumerus -28.6444 -17.4839 -68.8026
rradius 24.5578
rwrist 9.76481
rhand -13.2241 -23.8577
rfingers 7.12502
rthumb 12.8771 -53.4404
lclavicle 1.51573e-014 -1.51076e-014
lhumerus -18.578 23.2816 65.3422
lradius 40.6063
lwrist 9.34268
lhand -11.1719 21.8267
lfingers 7.12502
lthumb 14.8549 51.2742
rfemur -33.2557 -1.14783 14.8246
rtibia 13.7328
rfoot -3.35787 -22.5558
rtoes 6.00971
lfemur 2.40687 -4.8868 -21.9006
ltibia 13.8254
lfoot -16.7675 2.7039
ltoes -8.96063
321
root -11.0418 17.7337 4.99725 357.642 -86.7163 -351.117
lowerback 0.148239 -1.09953 -2.31618
upperback -1.43713 -1.4782 2.52033
thorax -1.43386 -0.703079 3.91262
lowerneck -13.1603 -0.938058 -2.73832
upperneck 23.5945 -3.33188 8.58325
head 9.83854 -1.01214 3.03019
rclavicle 8.94531e-016 -6.36111e-015
rhumerus -28.3772 -17.0149 -69.0969
rradius 24.8431
rwrist 9.39604
rhand -13.3865 -23.981
rfingers 7.12502
rthumb 12.7207 -53.5735
lclavicle 8.94531e-016 -6.36111e-015
lhumerus -17.6732 23.5727 65.3613
lradius 41.2492
lwrist 9.71225
lhand -11.4929 21.8528
lfingers 7.12502
lthumb 14.5456 51.3229
rfemur -33.1546 0.160481 13.881
rtibia 11.8231
rfoot -4.27881 -22.9869
rtoes 4.46573
lfemur 2.73411 -4.83356 -21.9834
ltibia 13.9142
lfoot -17.0519 2.60349
ltoes -9.38518
